<?xml version="1.0" encoding="UTF-8"?>
<!DOCTYPE svg PUBLIC "-//W3C//DTD SVG 1.1//EN" "http://www.w3.org/Graphics/SVG/1.1/DTD/svg11.dtd">
<!-- Creator: CorelDRAW (Evaluation Version) -->
<svg xmlns="http://www.w3.org/2000/svg" xml:space="preserve" width="78.3108mm" height="40.823mm" version="1.1" style="shape-rendering:geometricPrecision; text-rendering:geometricPrecision; image-rendering:optimizeQuality; fill-rule:evenodd; clip-rule:evenodd"
viewBox="0 0 4338.45 2261.61"
 xmlns:xlink="http://www.w3.org/1999/xlink"
 xmlns:xodm="http://www.corel.com/coreldraw/odm/2003">
 <defs>
  <style type="text/css">
   <![CDATA[
    .fil0 {fill:white}
   ]]>
  </style>
 </defs>
 <g id="Layer_x0020_1">
  <metadata id="CorelCorpID_0Corel-Layer"/>
  <path class="fil0" d="M581.3 1253.13c86.29,0 166.11,2.83 241.5,8.17l0.37 0.03c6.4,0.45 12.76,0.93 19.11,1.42 353.15,27.5 611.01,110.82 988,217.46 183.48,51.9 361.93,109.06 555.91,147.68 147.71,29.41 298.02,51.56 448.54,62.65l0.42 0.03c7.05,0.52 14.1,1.01 21.16,1.48 323.42,21.67 647.34,-8.56 948.09,-128.67 126.34,-50.45 292.51,-143.53 392.22,-236.32 47.53,-44.23 104.06,-92.58 141.84,-148.98 -0.58,0.16 -1.19,0.34 -1.81,0.55l0.44 -0.65c-14.47,3.86 -42.66,25.12 -58.95,34.87 -22.38,13.4 -39.32,23.69 -61.53,36.97 -41.93,25.09 -80.28,44.78 -124.99,67.32 -283.12,142.71 -643.08,207.94 -960.01,207.94 -61.72,0 -126.42,-2.36 -192.64,-6.81l-12.84 -0.89 -1.37 -0.1 -12.89 -0.95c-228.46,-17.31 -472.49,-58.85 -673.82,-114.06 -428.48,-117.52 -787.11,-247.35 -1225.24,-281.33 -7.5,-0.58 -15.02,-1.14 -22.57,-1.67l-0.2 -0.01c-64.44,-4.51 -130.62,-6.94 -199.02,-6.94 -223.03,0 -438.46,35.72 -620.09,144.47l-131.73 88.73c-10.65,7.88 -29.07,16.12 -30.24,26.17 -0.9,7.73 2.19,10.94 8.11,11.07 16.73,1.97 60.96,-25.96 99.16,-41.23 141.83,-56.7 290.26,-88.4 465.1,-88.4zm3704.18 -229.94l-4.69 4.69c-14.97,4 -80.55,52.22 -120.37,71.94 -215.81,106.86 -360.38,133.79 -600.54,168.72l-217.18 22.04c-114.04,6.15 -234.7,-9.25 -326.99,-9.4l0 -1077.26c6.55,7.52 8.33,9.52 13.52,21.06 4.39,9.74 7.37,17.06 10.58,31.63 18.59,84.47 -2.85,136.14 -20.78,213.09l1.48 -0.36 -0.11 0.46c49.87,-11.62 84.29,-44.56 182.83,-37.77l0.39 0.02 4.08 0.32c14.72,1.22 30.84,3.3 48.59,6.45 42.51,7.52 74.35,22.89 111.05,29.67 20.38,3.76 35.68,5.77 48.64,6.74l0.61 0.05 1.37 0.1 0.57 0.04c28.13,2.01 45.38,-0.86 80.66,-0.93l60.61 40.75c46.29,34.89 72.12,50.96 107.24,99.14 7.84,10.76 12.55,20.1 21.56,30.04 11.55,12.73 19.81,14.23 24.48,31.2l-222.13 -85.36c-80.18,-40.12 -106.39,-48.47 -135.9,-50.54l-0.39 -0.03 -1.2 -0.08c-17.63,-1.21 -36.49,-0.21 -68.78,-2.42l-3.44 -0.24 -0.2 -0.02c-13.05,-0.99 -28.22,-2.49 -46.2,-4.84 -14.12,-1.84 -26.55,-3.1 -37.99,-3.97l-0.99 -0.08 -1.37 -0.1 -0.95 -0.07 -1.37 -0.1 -0.94 -0.06c-36.61,-2.5 -63.81,-1.01 -106.73,-1.54 -3.4,-0.04 -6.39,-0.16 -9.09,-0.33l-0.45 -0.03 -0.44 -0.03c-12.61,-1.01 -18.32,-3.24 -30.18,-4.06l-0.27 -0.02 -0.54 -0.04c-3,-0.22 -6.41,-0.36 -10.44,-0.36l0 51.59c14.42,3.36 48.04,6.68 88.69,9.83l5 0.39 1.37 0.1 5.11 0.39 1.37 0.1 5.21 0.39 1.37 0.1 5.3 0.38 1.37 0.1 5.36 0.38 1.37 0.1 5.43 0.38 1.37 0.1 5.49 0.37c50.89,3.48 105.6,6.7 145.41,9.42l3.92 0.27 1.37 0.1 3.72 0.26 1.37 0.1 3.52 0.25 1.37 0.1 3.31 0.25 1.37 0.1 3.09 0.24c15.93,1.24 27.15,2.34 31.4,3.3 28.5,6.39 89.72,38.47 124.67,53.57 44.51,19.24 88.75,29.52 135.37,47.57 70.7,27.37 141.52,44.94 200.36,67 21.4,8.03 40.58,23.22 59.29,34.52 50.67,30.61 123.91,47.72 212.26,102.01 12.36,7.6 16.28,11.29 31.96,14.94 -13.6,18.56 -96.39,55.5 -125.29,67.02 -46.92,18.7 -96.88,33.61 -147.89,44.42 -26.48,5.61 -198.36,35.36 -245.25,32.21 -2.88,-0.24 -5.25,-0.63 -6.97,-1.18l-276.75 -108.09c-42.54,-17.61 -164.71,-124.96 -261.28,-174.94 -12.53,-6.49 -20.23,-12.18 -32.77,-18.82l0 0.64 -1.37 -0.74 0 65.67c58.9,13.72 117.25,70.53 165.46,106.6 72.61,54.33 164.9,85.64 251.41,114.46 23.78,7.93 56.67,14.46 66.26,27.55l-239.2 9.4c-25.15,1.36 -44.16,0.82 -60.85,-0.31l-0.4 -0.03 -1.37 -0.1 -0.39 -0.03 -1.37 -0.1 -0.38 -0.03c-12.65,-0.97 -24.14,-2.22 -36.28,-3.12l-0.29 -0.03 -1.37 -0.1 -0.3 -0.02 -1.37 -0.1 -0.31 -0.02c-5.5,-0.38 -11.15,-0.71 -17.12,-0.88 -19.83,-0.59 -41.25,0.18 -61.24,0.26 -5.34,0.02 -9.99,-0.13 -14.18,-0.4l-0.68 -0.04 -0.36 -0.03 -0.64 -0.05c-12.73,-1.02 -21.26,-3.02 -33.09,-3.82l-0.45 -0.03c-3.48,-0.26 -7.24,-0.42 -11.47,-0.42 -2.49,10.67 -6.89,22.19 -5.37,37.8 1.51,15.44 4.09,18.44 13.55,18.95 3.91,0.35 9.1,0.12 16.12,0.17 54.07,0.4 129.45,4.01 179.02,-0.28 27.36,-2.37 65.12,-0.29 93.58,-0.26l178.24 -9.38c22.07,-0.06 63.88,-2.83 87.84,-5.97 236.71,-31.06 375.18,-39.37 583.18,-162.62 22.33,-13.23 37,-21.1 51.32,-42.49l-88.91 -47.11c-29.66,-17.23 -60.64,-30.91 -91.3,-49.42 -72.6,-43.81 -107.85,-28.76 -259.63,-153.14 -84.88,-69.57 -64.43,-65.82 -142.91,-138.53l-78.62 -62.09c29.2,-14.01 81.24,-32.73 98.5,-56.29l-1.56 0.14 0.18 -0.24c-31.25,2.6 -63.22,14.68 -105.44,11.76 -23.72,-1.81 -50.67,-8.39 -82.52,-24.01 -104.1,-51.07 -109.03,-122.04 -280.29,-179.38 -30.91,-10.35 -74.59,-20.87 -119.12,-24.27l-2.11 -0.16 -0.39 -0.03c-29.33,-2.15 -58.98,-1.17 -85.57,5.01l0 315.88c-18.8,-10.31 -167.34,-55.42 -193.86,-64.25 -24.4,-8.13 -42.73,-16.28 -65.67,-23.45 -26.73,-8.36 -47.31,-13.68 -65.38,-14.88 -25.08,-1.94 -45.22,3.9 -69.99,20.34 -37.51,24.9 -79.28,28.96 -114.96,58.6 -38.73,32.17 -72.01,31.51 -142.13,31.42 -45.46,-0.06 -131.47,-4.77 -171.77,1.77 -51.87,8.42 -87.63,27.07 -128.36,45.19 -20.15,8.96 -34.39,17.52 -57.64,26.79 -53.37,21.27 -151.81,53.27 -209.67,53 -62.9,-0.29 -279.69,5.72 -329.54,17.56 -111.34,26.44 -174.12,63.57 -256.25,90.85 -85.98,28.55 -36.12,1.67 -124.12,49.43 -19.39,10.53 -37.73,17.83 -58.78,25.65l-220.25 21.7 227.16 -152.09c23.46,-12.62 45.13,-20.24 69.44,-29.06 49.61,-18.01 86.88,-42.22 142.81,-63.57 26.79,-10.23 47.94,-18.75 74.32,-28.87 50.85,-19.51 104.41,-30.53 153.46,-48.23 115.78,-41.78 185.37,-151.39 227.58,-175.81l145.51 -60.87c24.97,-7.81 89.03,0.33 138.71,-11.39 16.89,-3.98 22.89,-7.38 40,-11.59 33.4,-8.22 51.21,-4.27 89.04,-9.46 66.33,-9.11 12.85,-7.41 95.13,-8.06l166.36 -35.33c47.97,-23.61 81.22,-56.22 129,-77.38 179.98,-79.7 128.91,-55.93 333.94,-74.7 1.3,-0.12 2.7,-0.12 4.19,-0.03 37.74,3.57 125.96,65.92 160.89,85.41 6.55,3.66 9.47,4.81 15.21,8.24 8.38,5 7.84,6.83 17.56,10.58 7.4,2.85 16.34,4.33 26.03,4.98 24.28,1.85 53.61,-1.7 75.36,-1.7l-233.52 -146.41c-20.91,-12.19 -43.93,-20.5 -73.29,-22.58l-0.5 -0.04 -0.17 -0.01c-11.05,-0.83 -22.99,-0.76 -36.05,0.32 -298.16,24.56 -394.1,163.22 -466.48,176.15 -101.7,18.16 -117.27,22.49 -228.14,29.84 -74.3,4.93 -155.33,33.11 -221.89,28.44 -1.98,-0.16 -3.94,-0.33 -5.9,-0.54l-194.45 -63.53c-37.13,-10.75 -66.46,-18.83 -100.97,-30.36 -36.07,-12.06 -70.06,-23.12 -103.72,-25.52 -33.47,-2.63 -66.57,3.2 -100.98,24.99 -83.58,52.94 -92.19,82.84 -231.93,152.69 -159.41,79.68 -207.18,65.87 -321.62,194.34l-30.6 35.07c-34.93,37.35 -45.08,53.85 -107.43,84.88 -34.14,16.99 -56.35,23.59 -93.42,37.92 -118.71,45.89 -115.52,28.78 -197.77,121.18 -11.26,12.64 -19.14,22.42 -30.43,35.24 -16.66,18.92 -10.73,16.35 -33.09,32.58 -72.18,52.41 -136.43,169.28 -208.57,241.72 -20.43,20.52 -89.9,74.25 -92.95,99.13 -1.78,14.5 3.67,19.61 11.86,19.93 13.32,1.49 35.25,-11.53 44,-16.69 7.62,-4.5 12.42,-6.65 21.63,-11.21l174.46 -83.53c14.3,-5.86 29.53,-12.35 45.98,-19.69 74.46,-33.22 170.25,-62.95 270.53,-87.99l180.2 -39.43c59.1,-11.27 116.26,-20.63 167.98,-27.83 108.42,-15.09 340,-24.04 465.64,-15.31l0.11 0.01 4.92 0.36c8.27,0.63 16.03,1.35 23.22,2.15 5.66,0.63 11.23,1.13 16.71,1.54l0.51 0.04 1.37 0.1 0.51 0.04 0.24 0.02c24.2,1.75 46.97,1.76 70.6,3.37l0.47 0.03 1.37 0.1 0.47 0.03 0.12 0.01c8.56,0.64 17.26,1.52 26.2,2.79 41.82,5.92 77.77,7.63 119.11,12.23 290.2,32.25 589.51,99.73 883.33,148.59 41.62,6.93 325.86,52.02 425,59.58l3.83 0.28 0.15 0.01c11.3,0.81 19.99,1.1 25.34,0.73l0 151.14c-12.1,0 -25.79,-0.58 -40.86,-1.65 -230.32,-16.86 -778.76,-150.71 -948.64,-184.7 -82.56,-16.51 -169.64,-30.84 -252.93,-42.58l-265.24 -30.27 -0.85 -0.04 -0.53 -0.06 -347.07 -16.23c-22.14,3.16 -42.89,3.49 -71.7,3.47 -54.88,-0.03 -94.16,4.69 -145.41,4.69 3,11.25 6.44,14.56 11.91,14.66 6.47,0.88 15.96,-4.04 31.64,-5.18 8.07,-0.59 14.73,-0.54 20.64,-0.14 12.42,0.96 21.71,3.42 34.56,4.48l2.81 0.21 0.47 0.04 0.54 0.03c34.86,2.52 72.44,-2.42 107.48,-0.16l0.55 0.03 1.37 0.1 0.54 0.04c3.82,0.3 7.61,0.71 11.36,1.22 10.28,1.41 21.29,2.45 32.73,3.31l0.45 0.04 1.37 0.1 0.46 0.03 1.37 0.1 0.47 0.03 1.37 0.1 0.48 0.03c24.45,1.71 50.6,2.64 75.33,4.36l0.49 0.03 1.37 0.1 0.49 0.03 1.37 0.1 0.48 0.04c371.4,27.99 985.87,193.42 1381.31,265.07 121.11,21.94 240.84,38.15 359.64,47.05l0.18 0.02c6.51,0.49 13.02,0.95 19.52,1.4 320.61,21.98 634.69,-9.96 951.48,-126.82 58.86,-21.71 118.44,-51.48 170.45,-82.85 27.67,-16.69 126.33,-81.6 144.52,-108.77l4.69 -4.69 4.69 0 -3.91 -5.47 -0.22 1.52 -1.16 -1.62 -0.78 5.47zm-4.69 4.69l4.69 -4.69 1.39 0 -0.02 0.1 -4.69 4.69c-0.56,0.15 -1.2,0.37 -1.89,0.64l0.52 -0.74zm-1289.91 -470.02l0 154.92c-20.17,-13.87 -36.36,-32.86 -52.2,-53.37l-162.16 -166.12c28.39,2.95 76.23,25.09 104.7,34.49 23.45,7.74 80.77,28.36 106.38,29.91 1.16,0.09 2.25,0.16 3.29,0.18zm1.08 235.5l-1.08 276.74c-9.2,0 -19.75,-0.41 -31.41,-1.17l-4.55 -0.31 -1.37 -0.1 -4.73 -0.37c-115.5,-9.24 -320.35,-47.26 -410.34,-64.82 -289.46,-56.51 -599.1,-121.28 -893.28,-157.41 -40.5,-4.97 -77.7,-6.33 -119.09,-12.25 -14.01,-2.01 -30.95,-3.67 -49.88,-5.07l-0.03 0 -4.2 -0.3c-56.61,-4.04 -130.38,-5.68 -197.69,-6.34l1437.24 -314.47c20.31,19.19 46.35,46.45 83.41,83.11 14.97,14.82 26.66,21.5 42.4,37.34l36.93 42.81c21.32,26.19 88.68,115.66 117.68,122.62zm-517.1 1435.38l0.05 -0.07c-1.55,0 -3.47,-0.08 -5.7,-0.23 -78.96,-5.99 -524.93,-92.94 -585.6,-110.58 -186.73,-54.29 -337.94,-109.37 -512.75,-190.83l-237.62 -114.18c-210.79,-97.67 -392.88,-200 -633.66,-243.48 -27.77,-5.01 -50.41,-7.86 -77.51,-11.62 -21.02,-2.91 -40.2,-6.97 -62.38,-8.5l-0.07 -0.01c-6.06,-0.45 -12.33,-0.71 -18.92,-0.71 25.72,22.37 56.85,30.55 92.9,52.5 16.71,10.18 31.97,16.18 48.72,26.33 16.68,10.1 30.33,17.31 47.48,27.57l135.27 89.88c151.49,111.27 214.03,176.08 399.51,275.93 216.83,116.73 485.92,210.84 802.44,234.83l0.07 0.01c5.29,0.4 10.59,0.78 15.91,1.15 46.65,3.2 94.31,4.88 142.98,4.88 167.79,0 251.41,0.03 414.9,-21.32 24.51,-3.2 24.79,2.98 35.4,-11.51l-1.42 -0.03zm-2143.54 -849.06c116.4,9.68 237.15,17.59 337.78,42.16 89.74,21.91 205.77,58.19 289.16,95.47l322.54 151.21c106.2,43.83 209.63,96.91 332.4,146.04 47.76,19.11 90.1,35.57 138.66,53.66 253.13,94.3 520.45,168.01 792.64,189.2 7.09,0.55 14.18,1.07 21.28,1.56l0.07 0.01c204.41,13.96 411.42,-2.09 617.09,-61.66 146.74,-42.5 208.63,-70.64 340.98,-137.46 13.96,-7.05 35.18,-14.85 40.58,-29.78l-1.55 0.34 0.17 -0.44c-77.13,17.97 -430.29,51.6 -501.89,51.6 -114.22,0 -208.36,-2.19 -296.34,-8.13l-9.59 -0.66 -1.37 -0.1 -9.53 -0.7c-137.83,-10.4 -263.12,-30.52 -431.14,-66.5 -200.99,-43.05 -364,-94.02 -555.23,-157.74 -200.42,-66.79 -626.71,-220.34 -811.21,-258.24 -79.57,-16.35 -158.74,-28.1 -238.07,-33.98l-0.18 -0.02 -7.73 -0.55c-112.79,-7.9 -225.92,-3.86 -340.93,15.79l-25.48 7.36c-0.69,0.3 -2.13,0.96 -3.11,1.58zm-148.41 -319.33l5.83 -1.27 -5.83 1.27zm1089.27 -238.34l1440.05 -315.1 -1440.05 315.1zm-523.21 114.48l-180.2 39.43c59.66,-14.89 120.9,-28.12 180.2,-39.43zm699.15 -758.45c19.75,1.47 44.97,7.2 81.32,17.59l205.84 56.82c9.81,3.98 11.41,5.77 17.28,10.87 -145.89,33.99 -156.25,105.91 -261.96,178.97 -36.28,25.07 -60.28,31.52 -104.5,45.6 -84.91,27.04 -192.46,55.16 -267.02,98.84 -54.87,32.14 -107.95,39.77 -155.53,69.63l-261.69 179.22c-14.16,11.06 -27.75,21.82 -42.18,32.86 -21.36,16.33 -19.84,15.43 -49.84,25.21 -143.81,46.91 -241.78,87.7 -375.68,144.97 -16.18,6.92 -36.46,17.76 -51.22,21.67 9.57,-14.07 19.78,-20.18 31.09,-33.69 7.3,-8.72 6.5,-9.7 14.33,-18.5l138.26 -157.25c41.46,-41.42 78.97,-100.01 141.58,-125.78 183.82,-75.65 204.59,-55.78 327.83,-202.21 107.48,-127.72 189.59,-117.14 334.73,-195.31l163.86 -98.81c53.07,-35.24 70.04,-53.54 113.5,-50.7zm-173.82 643.91c-50.16,-0.49 -96.72,-0.44 -129.95,-0.44l12.18 -6.29c7.89,-2.98 5.37,-1.96 14.64,-4.13 87.16,-20.36 103.6,-38.19 204.59,-72.15 41.39,-13.92 80.41,-27.71 124.75,-30.05 47.97,-2.54 98.03,-9.36 150.23,-9.25 167.48,0.38 133.89,0.22 274.77,-39.49 115.86,-32.66 173.78,-73.53 234.34,-84.62 126.52,-23.16 203.2,33.33 349.29,-40.03 82.24,-41.3 114.98,-66.6 144.17,-64.54 17.22,1.73 33.46,13.12 58.23,36.51l-1437.24 314.47zm-729.76 159.68l228.23 -49.94 -228.23 49.94zm2230.88 -488.13l0.97 -0.22 -0.97 0.22z"/>
 </g>
</svg>
